# xmcd
#
# Track frame offsets: 
#        150
#        15775
#        39948
#
# Disc length: 761 seconds
#
# Revision: 1
# Processed by: cddbd v1.5.1PL2 Copyright (c) Steve Scherf et al.
# Submitted via: ExactAudioCopy v0.95a5
#
DISCID=0f02f703
DTITLE=Vernietiger X and Grootmeester Flits - Ziek In Me Kop (Gek In Me 
DTITLE=Hoofie)
DYEAR=1900
DGENRE=Nederhop
TTITLE0=Ziek In Me Kop (Gek In Me Hoofie)(Radio Mengsel)
TTITLE1=Ziek In Me Kop (Gek In Me Hoofie)(Unplugt Versje)
TTITLE2=De Vrije Stijl (Smaakje Smaak and Cup-D)
EXTD=
EXTT0=
EXTT1=
EXTT2=
PLAYORDER=
